<?xml version="1.0" encoding="utf-8"?>
<svg viewBox="642.8684 91.6118 86 96.104" xmlns="http://www.w3.org/2000/svg">
  <g transform="matrix(1, 0, 0, 1, 109.54039001464844, -31.87116622924805)">
    <path d="M 572.264 126.881 C 574.771 125.402 577.885 125.402 580.393 126.881 L 612.23 145.662 C 614.669 147.1 616.165 149.721 616.165 152.552 L 616.165 190.414 C 616.165 193.246 614.669 195.866 612.23 197.305 L 580.393 216.085 C 577.885 217.565 574.771 217.565 572.264 216.085 L 540.426 197.305 C 537.988 195.866 536.491 193.246 536.491 190.414 L 536.491 152.552 C 536.491 149.721 537.988 147.1 540.426 145.662 L 572.264 126.881 Z" fill="white"/>
    <path fill-rule="evenodd" clip-rule="evenodd" d="M 612.605 146.41 L 579.949 127.557 C 577.708 126.263 574.948 126.263 572.708 127.557 L 540.052 146.41 C 537.812 147.704 536.432 150.094 536.432 152.681 L 536.432 190.389 C 536.432 192.976 537.812 195.366 540.052 196.66 L 572.708 215.514 C 574.948 216.807 577.708 216.807 579.949 215.514 L 612.605 196.66 C 614.845 195.366 616.225 192.976 616.225 190.389 L 616.225 152.681 C 616.225 150.094 614.845 147.704 612.605 146.41 Z M 581.5 124.869 C 578.3 123.021 574.357 123.021 571.156 124.869 L 538.5 143.723 C 535.3 145.571 533.328 148.986 533.328 152.681 L 533.328 190.389 C 533.328 194.085 535.3 197.499 538.5 199.347 L 571.156 218.201 C 574.357 220.049 578.3 220.049 581.5 218.201 L 614.156 199.347 C 617.357 197.499 619.328 194.085 619.328 190.389 L 619.328 152.681 C 619.328 148.986 617.357 145.571 614.156 143.723 L 581.5 124.869 Z" style="fill: rgb(79, 92, 240);"/>
    <g transform="matrix(1, 0, 0, 1, -161.498428, 3.481724)">
      <g transform="matrix(0.174575, 0, 0, 0.174706, 715.181519, 138.473389)" style="">
        <path d="M127.843868,360.087912 L23.6617143,331.166242 L0.445186813,70.7657143 L255.554813,70.7657143 L232.31367,331.125451 L127.843868,360.087912 L127.843868,360.087912 Z" fill="#264DE4"/>
        <path d="M212.416703,314.546637 L232.277802,92.0573187 L128,92.0573187 L128,337.950242 L212.416703,314.546637 L212.416703,314.546637 Z" fill="#2965F1"/>
        <path d="M53.6685714,188.636132 L56.530989,220.572835 L128,220.572835 L128,188.636132 L53.6685714,188.636132 L53.6685714,188.636132 Z" fill="#EBEBEB"/>
        <path d="M47.917011,123.994725 L50.8202198,155.932132 L128,155.932132 L128,123.994725 L47.917011,123.994725 L47.917011,123.994725 Z" fill="#EBEBEB"/>
        <path d="M128,271.580132 L127.860044,271.617407 L92.2915165,262.013187 L90.0177582,236.54189 L57.957978,236.54189 L62.4323516,286.687648 L127.853011,304.848879 L128,304.808088 L128,271.580132 L128,271.580132 Z" fill="#EBEBEB"/>
        <path d="M60.4835165,0 L99.1648352,0 L99.1648352,16.1758242 L76.6593407,16.1758242 L76.6593407,32.3516484 L99.1648352,32.3516484 L99.1648352,48.5274725 L60.4835165,48.5274725 L60.4835165,0 L60.4835165,0 Z" fill="#000000"/>
        <path d="M106.901099,0 L145.582418,0 L145.582418,14.0659341 L123.076923,14.0659341 L123.076923,16.8791209 L145.582418,16.8791209 L145.582418,49.2307692 L106.901099,49.2307692 L106.901099,34.4615385 L129.406593,34.4615385 L129.406593,31.6483516 L106.901099,31.6483516 L106.901099,0 L106.901099,0 Z" fill="#000000"/>
        <path d="M153.318681,0 L192,0 L192,14.0659341 L169.494505,14.0659341 L169.494505,16.8791209 L192,16.8791209 L192,49.2307692 L153.318681,49.2307692 L153.318681,34.4615385 L175.824176,34.4615385 L175.824176,31.6483516 L153.318681,31.6483516 L153.318681,0 L153.318681,0 Z" fill="#000000"/>
        <path d="M202.126769,188.636132 L207.892396,123.994725 L127.889582,123.994725 L127.889582,155.932132 L172.892132,155.932132 L169.98611,188.636132 L127.889582,188.636132 L127.889582,220.572835 L167.216527,220.572835 L163.509451,261.992791 L127.889582,271.606857 L127.889582,304.833407 L193.362286,286.687648 L193.842637,281.291956 L201.347516,197.212132 L202.126769,188.636132 L202.126769,188.636132 Z" fill="#FFFFFF"/>
      </g>
    </g>
  </g>
</svg>