<?xml version="1.0" encoding="utf-8"?>
<svg viewBox="627.382 58.5495 85.907 96" xmlns="http://www.w3.org/2000/svg">
  <path d="M 666.382 60.859 C 668.857 59.43 671.907 59.43 674.382 60.859 L 707.951 80.24 C 710.426 81.669 711.951 84.31 711.951 87.168 L 711.951 125.931 C 711.951 128.789 710.426 131.43 707.951 132.859 L 674.382 152.24 C 671.907 153.669 668.857 153.669 666.382 152.24 L 632.813 132.859 C 630.338 131.43 628.813 128.789 628.813 125.931 L 628.813 87.168 C 628.813 84.31 630.338 81.669 632.813 80.24 L 666.382 60.859 Z" fill="white" transform="matrix(1, 0, 0, 1, -5.684341886080802e-14, -1.7763568394002505e-15)"/>
  <path fill-rule="evenodd" clip-rule="evenodd" d="M 706.573 81.452 L 673.952 62.619 C 671.714 61.326 668.957 61.326 666.719 62.619 L 634.099 81.452 C 631.861 82.744 630.482 85.132 630.482 87.716 L 630.482 125.383 C 630.482 127.967 631.861 130.355 634.099 131.647 L 666.719 150.481 C 668.957 151.773 671.714 151.773 673.952 150.481 L 706.573 131.647 C 708.811 130.355 710.189 127.967 710.189 125.383 L 710.189 87.716 C 710.189 85.132 708.811 82.744 706.573 81.452 Z M 675.502 59.934 C 672.305 58.088 668.366 58.088 665.169 59.934 L 632.549 78.767 C 629.351 80.613 627.382 84.024 627.382 87.716 L 627.382 125.383 C 627.382 129.075 629.351 132.486 632.549 134.332 L 665.169 153.165 C 668.366 155.011 672.305 155.011 675.502 153.165 L 708.123 134.332 C 711.32 132.486 713.289 129.075 713.289 125.383 L 713.289 87.716 C 713.289 84.024 711.32 80.613 708.123 78.767 L 675.502 59.934 Z" style="fill: rgb(255, 165, 14);" transform="matrix(1, 0, 0, 1, -5.684341886080802e-14, -1.7763568394002505e-15)"/>
  <g transform="matrix(2.156860113143921, 0, 0, 2.156860113143921, -516.5313720703126, -69.8305435180664)">
    <path d="M 540.256 90.509 L 540.426 90.272 L 548.446 75.058 L 548.463 74.897 L 544.928 68.257 C 544.691 67.811 544.06 67.79 543.793 68.218 C 543.746 68.293 543.715 68.377 543.701 68.464 L 540.256 90.509 Z" style="fill:#ffc24a"/>
    <path d="M 540.356 90.329 L 540.484 90.079 L 548.421 75.023 L 544.895 68.357 C 544.688 67.944 544.112 67.91 543.858 68.296 C 543.805 68.376 543.772 68.468 543.762 68.563 L 540.356 90.329 Z" style="fill:#ffa712"/>
    <path d="M 551.04 79.919 L 553.672 77.219 L 551.039 72.198 C 550.793 71.738 550.141 71.718 549.866 72.161 C 549.858 72.173 549.851 72.185 549.844 72.198 L 548.437 74.88 L 548.437 75.109 L 551.04 79.919 Z" style="fill:#f4bd62"/>
    <path d="M 550.993 79.809 L 553.552 77.189 L 550.993 72.309 C 550.826 71.887 550.266 71.805 549.984 72.16 C 549.959 72.192 549.937 72.226 549.919 72.262 L 548.505 74.991 L 548.463 75.13 L 550.993 79.809 Z" style="fill:#ffa50e"/>
    <polygon points="540.258 90.51 540.335 90.432 540.614 90.319 550.874 80.097 551.004 79.743 548.445 74.865 540.258 90.51" style="fill:#f6820c"/>
    <path d="M 551.368 95.665 L 560.656 90.486 L 558.002 74.155 C 557.923 73.673 557.351 73.458 556.973 73.768 C 556.957 73.781 556.942 73.794 556.927 73.809 L 540.256 90.509 L 549.489 95.664 C 550.073 95.99 550.784 95.99 551.367 95.664" style="fill:#fde068"/>
    <path d="M 560.571 90.443 L 557.939 74.235 C 557.921 73.807 557.446 73.558 557.084 73.788 C 557.043 73.814 557.005 73.846 556.972 73.882 L 540.356 90.478 L 549.487 95.578 C 550.066 95.901 550.771 95.901 551.35 95.578 L 560.571 90.443 Z" style="fill:#fcca3f"/>
    <path d="M 551.368 95.509 C 550.785 95.835 550.074 95.835 549.49 95.509 L 540.332 90.431 L 540.256 90.509 L 549.489 95.664 C 550.073 95.99 550.784 95.99 551.367 95.664 L 560.656 90.486 L 560.633 90.346 L 551.368 95.509 Z" style="fill:#eeab37"/>
  </g>
</svg>