<?xml version="1.0" encoding="utf-8"?>
<svg viewBox="627.382 58.5495 85.907 96" xmlns="http://www.w3.org/2000/svg">
  <path d="M 666.382 60.859 C 668.857 59.43 671.907 59.43 674.382 60.859 L 707.951 80.24 C 710.426 81.669 711.951 84.31 711.951 87.168 L 711.951 125.931 C 711.951 128.789 710.426 131.43 707.951 132.859 L 674.382 152.24 C 671.907 153.669 668.857 153.669 666.382 152.24 L 632.813 132.859 C 630.338 131.43 628.813 128.789 628.813 125.931 L 628.813 87.168 C 628.813 84.31 630.338 81.669 632.813 80.24 L 666.382 60.859 Z" fill="white" transform="matrix(1, 0, 0, 1, -5.684341886080802e-14, -5.551115123125783e-17)"/>
  <path fill-rule="evenodd" clip-rule="evenodd" d="M 706.573 81.452 L 673.952 62.619 C 671.714 61.326 668.957 61.326 666.719 62.619 L 634.099 81.452 C 631.861 82.744 630.482 85.132 630.482 87.716 L 630.482 125.383 C 630.482 127.967 631.861 130.355 634.099 131.647 L 666.719 150.481 C 668.957 151.773 671.714 151.773 673.952 150.481 L 706.573 131.647 C 708.811 130.355 710.189 127.967 710.189 125.383 L 710.189 87.716 C 710.189 85.132 708.811 82.744 706.573 81.452 Z M 675.502 59.934 C 672.305 58.088 668.366 58.088 665.169 59.934 L 632.549 78.767 C 629.351 80.613 627.382 84.024 627.382 87.716 L 627.382 125.383 C 627.382 129.075 629.351 132.486 632.549 134.332 L 665.169 153.165 C 668.366 155.011 672.305 155.011 675.502 153.165 L 708.123 134.332 C 711.32 132.486 713.289 129.075 713.289 125.383 L 713.289 87.716 C 713.289 84.024 711.32 80.613 708.123 78.767 L 675.502 59.934 Z" style="fill: rgb(238, 81, 59);" transform="matrix(1, 0, 0, 1, -5.684341886080802e-14, -5.551115123125783e-17)"/>
  <path d="M 646.646 109.078 C 645.281 107.711 645.281 105.497 646.646 104.13 L 667.649 83.128 C 669.014 81.762 671.228 81.762 672.595 83.128 L 693.597 104.13 C 694.964 105.497 694.964 107.711 693.597 109.078 L 672.595 130.079 C 671.228 131.444 669.014 131.444 667.649 130.079 L 646.646 109.078 Z" fill="#EE513B" transform="matrix(1, 0, 0, 1, -5.684341886080802e-14, -5.551115123125783e-17)"/>
  <path d="M 663.383 87.461 L 661.255 89.588 L 666.748 95.081 C 666.526 95.559 666.402 96.089 666.402 96.651 C 666.402 98.241 667.403 99.599 668.808 100.131 L 668.808 113.568 C 667.403 114.098 666.402 115.456 666.402 117.049 C 666.402 119.103 668.068 120.768 670.12 120.768 C 672.175 120.768 673.839 119.103 673.839 117.049 C 673.839 115.605 673.019 114.354 671.816 113.738 L 671.816 100.149 L 677.068 105.401 C 676.856 105.866 676.739 106.386 676.739 106.932 C 676.739 108.985 678.403 110.651 680.458 110.651 C 682.511 110.651 684.177 108.985 684.177 106.932 C 684.177 104.878 682.511 103.213 680.458 103.213 C 680.059 103.213 679.674 103.276 679.313 103.392 L 673.673 97.753 C 673.782 97.405 673.839 97.034 673.839 96.651 C 673.839 94.596 672.175 92.932 670.12 92.932 C 669.737 92.932 669.368 92.99 669.018 93.098 L 663.383 87.461 Z" fill="white" transform="matrix(1, 0, 0, 1, -5.684341886080802e-14, -5.551115123125783e-17)"/>
</svg>