<?xml version="1.0" encoding="utf-8"?>
<svg viewBox="623.364 50.2465 85.907 96" xmlns="http://www.w3.org/2000/svg">
  <path d="M 662.364 52.556 C 664.839 51.127 667.889 51.127 670.364 52.556 L 703.933 71.937 C 706.408 73.366 707.933 76.007 707.933 78.865 L 707.933 117.628 C 707.933 120.486 706.408 123.127 703.933 124.556 L 670.364 143.937 C 667.889 145.366 664.839 145.366 662.364 143.937 L 628.795 124.556 C 626.32 123.127 624.795 120.486 624.795 117.628 L 624.795 78.865 C 624.795 76.007 626.32 73.366 628.795 71.937 L 662.364 52.556 Z" fill="white" transform="matrix(1, 0, 0, 1, -5.684341886080802e-14, -5.551115123125783e-17)"/>
  <path fill-rule="evenodd" clip-rule="evenodd" d="M 702.555 73.149 L 669.934 54.316 C 667.696 53.023 664.939 53.023 662.701 54.316 L 630.081 73.149 C 627.843 74.441 626.464 76.829 626.464 79.413 L 626.464 117.08 C 626.464 119.664 627.843 122.052 630.081 123.344 L 662.701 142.178 C 664.939 143.47 667.696 143.47 669.934 142.178 L 702.555 123.344 C 704.793 122.052 706.171 119.664 706.171 117.08 L 706.171 79.413 C 706.171 76.829 704.793 74.441 702.555 73.149 Z M 671.484 51.631 C 668.287 49.785 664.348 49.785 661.151 51.631 L 628.531 70.464 C 625.333 72.31 623.364 75.721 623.364 79.413 L 623.364 117.08 C 623.364 120.772 625.333 124.183 628.531 126.029 L 661.151 144.862 C 664.348 146.708 668.287 146.708 671.484 144.862 L 704.105 126.029 C 707.302 124.183 709.271 120.772 709.271 117.08 L 709.271 79.413 C 709.271 75.721 707.302 72.31 704.105 70.464 L 671.484 51.631 Z" style="" transform="matrix(1, 0, 0, 1, -5.684341886080802e-14, -5.551115123125783e-17)"/>
  <path fill-rule="evenodd" clip-rule="evenodd" d="M 672.077 112.443 L 672.077 117.136 C 672.84 117.527 673.742 117.82 674.784 118.016 C 675.826 118.211 676.924 118.309 678.078 118.309 C 679.203 118.309 680.271 118.202 681.284 117.986 C 682.296 117.771 683.184 117.417 683.947 116.923 C 684.71 116.429 685.314 115.784 685.759 114.987 C 686.204 114.19 686.427 113.205 686.427 112.032 C 686.427 111.181 686.299 110.436 686.045 109.795 C 685.791 109.155 685.424 108.585 684.945 108.087 C 684.465 107.588 683.891 107.141 683.221 106.745 C 682.551 106.349 681.795 105.975 680.954 105.623 C 680.338 105.369 679.785 105.122 679.296 104.882 C 678.807 104.643 678.391 104.398 678.049 104.149 C 677.706 103.899 677.442 103.635 677.256 103.357 C 677.071 103.078 676.978 102.763 676.978 102.411 C 676.978 102.088 677.061 101.797 677.227 101.538 C 677.393 101.279 677.628 101.057 677.931 100.871 C 678.235 100.685 678.606 100.541 679.046 100.438 C 679.487 100.336 679.976 100.284 680.514 100.284 C 680.905 100.284 681.318 100.314 681.753 100.372 C 682.189 100.431 682.626 100.521 683.067 100.644 C 683.507 100.766 683.935 100.92 684.35 101.106 C 684.766 101.291 685.15 101.506 685.502 101.751 L 685.502 97.366 C 684.788 97.092 684.008 96.889 683.162 96.757 C 682.316 96.625 681.345 96.559 680.25 96.559 C 679.134 96.559 678.078 96.679 677.08 96.918 C 676.083 97.158 675.205 97.532 674.447 98.04 C 673.689 98.549 673.089 99.197 672.649 99.984 C 672.209 100.771 671.989 101.712 671.989 102.807 C 671.989 104.205 672.393 105.398 673.2 106.385 C 674.006 107.373 675.232 108.209 676.875 108.893 C 677.52 109.157 678.122 109.416 678.68 109.671 C 679.237 109.925 679.719 110.189 680.125 110.463 C 680.531 110.736 680.851 111.035 681.086 111.357 C 681.321 111.68 681.438 112.047 681.438 112.457 C 681.438 112.76 681.365 113.041 681.218 113.301 C 681.071 113.56 680.849 113.784 680.55 113.975 C 680.252 114.166 679.88 114.315 679.435 114.422 C 678.99 114.53 678.469 114.584 677.873 114.584 C 676.855 114.584 675.848 114.405 674.85 114.048 C 673.852 113.692 672.928 113.156 672.077 112.443 Z M 664.187 100.879 L 670.208 100.879 L 670.208 97.028 L 653.427 97.028 L 653.427 100.879 L 659.418 100.879 L 659.418 118.028 L 664.187 118.028 L 664.187 100.879 Z" fill="white" transform="matrix(1, 0, 0, 1, -5.684341886080802e-14, -5.551115123125783e-17)"/>
  <g id="Page-1" stroke="none" stroke-width="1" fill="none" fill-rule="evenodd" transform="matrix(2.4000000953674316, 0, 0, 2.4000000953674316, 641.5869750976562, 74.31930541992188)">
    <g id="Dribbble-Light-Preview" transform="translate(-140.000000, -7559.000000)" fill="#000000">
      <g id="icons" transform="translate(56.000000, 160.000000)">
        <path d="M94,7399 C99.523,7399 104,7403.59 104,7409.253 C104,7413.782 101.138,7417.624 97.167,7418.981 C96.66,7419.082 96.48,7418.762 96.48,7418.489 C96.48,7418.151 96.492,7417.047 96.492,7415.675 C96.492,7414.719 96.172,7414.095 95.813,7413.777 C98.04,7413.523 100.38,7412.656 100.38,7408.718 C100.38,7407.598 99.992,7406.684 99.35,7405.966 C99.454,7405.707 99.797,7404.664 99.252,7403.252 C99.252,7403.252 98.414,7402.977 96.505,7404.303 C95.706,7404.076 94.85,7403.962 94,7403.958 C93.15,7403.962 92.295,7404.076 91.497,7404.303 C89.586,7402.977 88.746,7403.252 88.746,7403.252 C88.203,7404.664 88.546,7405.707 88.649,7405.966 C88.01,7406.684 87.619,7407.598 87.619,7408.718 C87.619,7412.646 89.954,7413.526 92.175,7413.785 C91.889,7414.041 91.63,7414.493 91.54,7415.156 C90.97,7415.418 89.522,7415.871 88.63,7414.304 C88.63,7414.304 88.101,7413.319 87.097,7413.247 C87.097,7413.247 86.122,7413.234 87.029,7413.87 C87.029,7413.87 87.684,7414.185 88.139,7415.37 C88.139,7415.37 88.726,7417.2 91.508,7416.58 C91.513,7417.437 91.522,7418.245 91.522,7418.489 C91.522,7418.76 91.338,7419.077 90.839,7418.982 C86.865,7417.627 84,7413.783 84,7409.253 C84,7403.59 88.478,7399 94,7399" id="github-[#142]"/>
      </g>
    </g>
  </g>
</svg>