<?xml version="1.0" encoding="utf-8"?>
<svg viewBox="531.109 202.0002 85.907 95.9995" xmlns="http://www.w3.org/2000/svg">
  <path d="M 570.953 205.224 C 573.428 203.795 576.478 203.795 578.953 205.224 L 612.522 224.606 C 614.997 226.035 616.522 228.676 616.522 231.534 L 616.522 270.296 C 616.522 273.154 614.997 275.795 612.522 277.224 L 578.953 296.606 C 576.478 298.035 573.428 298.035 570.953 296.606 L 537.384 277.224 C 534.909 275.795 533.384 273.154 533.384 270.296 L 533.384 231.534 C 533.384 228.676 534.909 226.035 537.384 224.606 L 570.953 205.224 Z" fill="white" style="" transform="matrix(1, 0, 0, 1, -5.684341886080802e-14, -1.4210854715202004e-14)"/>
  <path fill-rule="evenodd" clip-rule="evenodd" d="M 610.3 224.902 L 577.679 206.069 C 575.441 204.777 572.684 204.777 570.446 206.069 L 537.826 224.902 C 535.588 226.195 534.209 228.582 534.209 231.167 L 534.209 268.834 C 534.209 271.418 535.588 273.806 537.826 275.098 L 570.446 293.931 C 572.684 295.223 575.441 295.223 577.679 293.931 L 610.3 275.098 C 612.538 273.806 613.916 271.418 613.916 268.834 L 613.916 231.167 C 613.916 228.582 612.538 226.195 610.3 224.902 Z M 579.229 203.384 C 576.032 201.539 572.093 201.539 568.896 203.384 L 536.276 222.218 C 533.079 224.064 531.109 227.475 531.109 231.167 L 531.109 268.834 C 531.109 272.525 533.079 275.936 536.276 277.782 L 568.896 296.616 C 572.093 298.461 576.032 298.461 579.229 296.616 L 611.85 277.782 C 615.047 275.936 617.016 272.525 617.016 268.834 L 617.016 231.167 C 617.016 227.475 615.047 224.064 611.85 222.218 L 579.229 203.384 Z" style="fill: rgb(214, 98, 35);" transform="matrix(1, 0, 0, 1, -5.684341886080802e-14, -1.4210854715202004e-14)"/>
  <g transform="matrix(0.6769229769706726, 0, 0, 0.6769229769706726, 184.5172424316406, 182.8213348388672)">
    <path d="M 608.79 73.97 L 602.868 140.307 L 576.25 147.687 L 549.705 140.317 L 543.79 73.97 L 608.79 73.97 Z" fill="#E44D26"/>
    <path d="M 576.29 142.046 L 597.799 136.083 L 602.859 79.394 L 576.29 79.394 L 576.29 142.046 Z" fill="#F16529"/>
    <path d="M 564.778 95.669 L 576.29 95.669 L 576.29 87.532 L 555.885 87.532 L 556.08 89.715 L 558.08 112.139 L 576.29 112.139 L 576.29 104.002 L 565.522 104.002 L 564.778 95.669 Z M 566.612 116.208 L 558.444 116.208 L 559.584 128.985 L 576.253 133.612 L 576.29 133.602 L 576.29 125.135 L 576.254 125.145 L 567.192 122.698 L 566.612 116.208 Z" fill="#EBEBEB"/>
    <path d="M 549.837 55.939 L 553.973 55.939 L 553.973 60.025 L 557.756 60.025 L 557.756 55.939 L 561.891 55.939 L 561.891 68.311 L 557.756 68.311 L 557.756 64.168 L 553.973 64.168 L 553.973 68.311 L 549.838 68.311 L 549.838 55.939 L 549.837 55.939 Z M 567.329 60.042 L 563.689 60.042 L 563.689 55.939 L 575.107 55.939 L 575.107 60.042 L 571.465 60.042 L 571.465 68.311 L 567.33 68.311 L 567.33 60.042 L 567.329 60.042 L 567.329 60.042 Z M 576.919 55.939 L 581.231 55.939 L 583.884 60.286 L 586.533 55.939 L 590.847 55.939 L 590.847 68.311 L 586.729 68.311 L 586.729 62.179 L 583.884 66.578 L 583.812 66.578 L 580.965 62.179 L 580.965 68.311 L 576.919 68.311 L 576.919 55.939 Z M 592.905 55.939 L 597.042 55.939 L 597.042 64.222 L 602.857 64.222 L 602.857 68.311 L 592.905 68.311 L 592.905 55.939 L 592.905 55.939 Z"/>
    <path d="M 576.262 112.139 L 586.282 112.139 L 585.337 122.693 L 576.262 125.142 L 576.262 133.608 L 592.944 128.985 L 593.066 127.61 L 594.978 106.187 L 595.177 104.002 L 576.262 104.002 L 576.262 112.139 Z M 576.262 95.649 L 576.262 95.669 L 595.917 95.669 L 596.08 93.84 L 596.451 89.715 L 596.646 87.532 L 576.262 87.532 L 576.262 95.65 L 576.262 95.649 Z" fill="#FFF"/>
  </g>
</svg>