<?xml version="1.0" encoding="utf-8"?>
<svg viewBox="533.328 123.483 86 96.104" xmlns="http://www.w3.org/2000/svg">
  <path d="M 572.264 126.881 C 574.771 125.402 577.885 125.402 580.393 126.881 L 612.23 145.662 C 614.669 147.1 616.165 149.721 616.165 152.552 L 616.165 190.414 C 616.165 193.246 614.669 195.866 612.23 197.305 L 580.393 216.085 C 577.885 217.565 574.771 217.565 572.264 216.085 L 540.426 197.305 C 537.988 195.866 536.491 193.246 536.491 190.414 L 536.491 152.552 C 536.491 149.721 537.988 147.1 540.426 145.662 L 572.264 126.881 Z" fill="white" transform="matrix(1, 0, 0, 1, 5.684341886080802e-14, 0)"/>
  <path fill-rule="evenodd" clip-rule="evenodd" d="M 612.605 146.41 L 579.949 127.557 C 577.708 126.263 574.948 126.263 572.708 127.557 L 540.052 146.41 C 537.812 147.704 536.432 150.094 536.432 152.681 L 536.432 190.389 C 536.432 192.976 537.812 195.366 540.052 196.66 L 572.708 215.514 C 574.948 216.807 577.708 216.807 579.949 215.514 L 612.605 196.66 C 614.845 195.366 616.225 192.976 616.225 190.389 L 616.225 152.681 C 616.225 150.094 614.845 147.704 612.605 146.41 Z M 581.5 124.869 C 578.3 123.021 574.357 123.021 571.156 124.869 L 538.5 143.723 C 535.3 145.571 533.328 148.986 533.328 152.681 L 533.328 190.389 C 533.328 194.085 535.3 197.499 538.5 199.347 L 571.156 218.201 C 574.357 220.049 578.3 220.049 581.5 218.201 L 614.156 199.347 C 617.357 197.499 619.328 194.085 619.328 190.389 L 619.328 152.681 C 619.328 148.986 617.357 145.571 614.156 143.723 L 581.5 124.869 Z" fill="#F0DB4F" transform="matrix(1, 0, 0, 1, 5.684341886080802e-14, 0)"/>
  <rect x="552.328" y="147.483" width="48" height="48" fill="#F8DC3D" transform="matrix(1, 0, 0, 1, 5.684341886080802e-14, 0)"/>
  <path d="M 572.103 190.517 C 576.009 190.517 578.686 188.438 578.686 183.87 L 578.686 168.813 L 574.276 168.813 L 574.276 183.807 C 574.276 186.012 573.363 186.579 571.914 186.579 C 570.402 186.579 569.772 185.54 569.079 184.311 L 565.488 186.485 C 566.527 188.69 568.575 190.517 572.103 190.517 Z" fill="black" transform="matrix(1, 0, 0, 1, 5.684341886080802e-14, 0)"/>
  <path d="M 589.116 190.517 C 593.305 190.517 596.424 188.343 596.424 184.374 C 596.424 180.689 594.313 179.051 590.565 177.444 L 589.462 176.972 C 587.572 176.153 586.753 175.617 586.753 174.294 C 586.753 173.223 587.572 172.404 588.864 172.404 C 590.124 172.404 590.943 172.94 591.699 174.294 L 595.132 172.089 C 593.683 169.538 591.667 168.561 588.864 168.561 C 584.926 168.561 582.406 171.081 582.406 174.389 C 582.406 177.98 584.517 179.681 587.698 181.035 L 588.801 181.508 C 590.817 182.39 592.014 182.925 592.014 184.437 C 592.014 185.697 590.848 186.611 589.021 186.611 C 586.848 186.611 585.619 185.477 584.674 183.933 L 581.083 186.012 C 582.375 188.564 585.021 190.517 589.116 190.517 Z" fill="black" transform="matrix(1, 0, 0, 1, 5.684341886080802e-14, 0)"/>
</svg>