<?xml version="1.0" encoding="utf-8"?>
<svg viewBox="809.8634 -999.424 85.907 95.9995" xmlns="http://www.w3.org/2000/svg">
  <g transform="matrix(1, 0, 0, 1, 299.9254455566406, 24.918771743774414)">
    <g transform="matrix(1, 0, 0, 1, 34.893635, -1173.072144)">
      <path d="M 514.458 150.667 C 516.933 149.238 519.983 149.238 522.458 150.667 L 556.027 170.049 C 558.502 171.478 560.027 174.119 560.027 176.977 L 560.027 215.739 C 560.027 218.597 558.502 221.238 556.027 222.667 L 522.458 242.049 C 519.983 243.478 516.933 243.478 514.458 242.049 L 480.889 222.667 C 478.414 221.238 476.889 218.597 476.889 215.739 L 476.889 176.977 C 476.889 174.119 478.414 171.478 480.889 170.049 L 514.458 150.667 Z" fill="white" style=""/>
    </g>
    <path fill-rule="evenodd" clip-rule="evenodd" d="M 589.129 -1001.441 L 556.508 -1020.274 C 554.27 -1021.566 551.513 -1021.566 549.275 -1020.274 L 516.655 -1001.441 C 514.417 -1000.148 513.038 -997.761 513.038 -995.176 L 513.038 -957.509 C 513.038 -954.925 514.417 -952.537 516.655 -951.245 L 549.275 -932.412 C 551.513 -931.12 554.27 -931.12 556.508 -932.412 L 589.129 -951.245 C 591.367 -952.537 592.745 -954.925 592.745 -957.509 L 592.745 -995.176 C 592.745 -997.761 591.367 -1000.148 589.129 -1001.441 Z M 558.058 -1022.959 C 554.861 -1024.804 550.922 -1024.804 547.725 -1022.959 L 515.105 -1004.125 C 511.908 -1002.279 509.938 -998.868 509.938 -995.176 L 509.938 -957.509 C 509.938 -953.818 511.908 -950.407 515.105 -948.561 L 547.725 -929.727 C 550.922 -927.882 554.861 -927.882 558.058 -929.727 L 590.679 -948.561 C 593.876 -950.407 595.845 -953.818 595.845 -957.509 L 595.845 -995.176 C 595.845 -998.868 593.876 -1002.279 590.679 -1004.125 L 558.058 -1022.959 Z" style="fill: rgb(153, 66, 91);"/>
    <g fill="#8CC84B" transform="matrix(0.192313, 0, 0, 0.192313, 528.289673, -1003.46759)"/>
  </g>
  <path d="M 872.201 -951.486 C 872.201 -954.144 870.046 -956.3 867.388 -956.3 C 867.217 -956.3 867.049 -956.291 866.882 -956.273 L 873.493 -975.77 L 845.401 -975.77 L 852.001 -956.291 C 851.906 -956.291 851.807 -956.3 851.709 -956.3 C 848.002 -956.296 845.689 -952.281 847.545 -949.073 C 848.144 -948.037 849.107 -947.263 850.246 -946.899 C 849.222 -945.136 847.947 -943.532 846.462 -942.136 C 844.528 -940.288 842.232 -938.862 839.718 -937.95 C 836.792 -939.335 835.449 -942.753 836.644 -945.762 C 836.785 -946.094 836.929 -946.43 837.068 -946.767 C 840.676 -947.614 842.012 -952.052 839.472 -954.754 C 836.933 -957.453 832.421 -956.392 831.352 -952.842 C 830.752 -950.849 831.5 -948.696 833.208 -947.504 C 831.67 -944.719 830.497 -941.747 829.719 -938.662 C 829.066 -934.72 829.719 -930.537 833.127 -928.172 C 841.068 -922.666 849.691 -931.584 858.78 -933.824 C 862.075 -934.637 865.69 -934.506 868.592 -936.188 C 870.714 -937.394 872.19 -939.485 872.617 -941.891 C 873.004 -944.175 872.452 -946.523 871.081 -948.394 C 871.806 -949.258 872.201 -950.352 872.201 -951.479 L 872.201 -951.486 Z M 856.524 -951.461 L 856.524 -951.477 C 856.524 -953.16 855.645 -954.722 854.204 -955.596 L 859.456 -966.236 L 864.719 -955.498 C 863.377 -954.606 862.572 -953.101 862.576 -951.493 C 862.576 -951.458 862.576 -951.421 862.576 -951.387 L 856.524 -951.461 Z" style="fill:#99425b"/>
</svg>