<?xml version="1.0" encoding="utf-8"?>
<svg viewBox="50.041 -1006.3077 85.907 95.9995" xmlns="http://www.w3.org/2000/svg">
  <g transform="matrix(1, 0, 0, 1, -425.00250244140625, -1155.03662109375)">
    <path d="M 514.458 150.667 C 516.933 149.238 519.983 149.238 522.458 150.667 L 556.027 170.049 C 558.502 171.478 560.027 174.119 560.027 176.977 L 560.027 215.739 C 560.027 218.597 558.502 221.238 556.027 222.667 L 522.458 242.049 C 519.983 243.478 516.933 243.478 514.458 242.049 L 480.889 222.667 C 478.414 221.238 476.889 218.597 476.889 215.739 L 476.889 176.977 C 476.889 174.119 478.414 171.478 480.889 170.049 L 514.458 150.667 Z" fill="white" style=""/>
  </g>
  <g transform="matrix(0.028811002150177956, 0, 0, 0.02930600196123123, 70.46005249023438, -968.9033203125)" style="">
    <path d="M 780.287 -814.132 L 827.887 -724.732 C 838.587 -708.232 850.187 -693.632 863.787 -680.032 C 903.787 -640.532 941.087 -598.332 975.387 -553.732 C 1055.987 -447.932 1110.387 -330.332 1149.187 -203.132 C 1172.487 -125.532 1185.087 -45.732 1186.087 34.768 C 1189.987 275.668 1107.387 482.468 940.987 654.368 C 913.987 681.568 884.687 706.668 853.487 729.068 C 836.987 729.068 829.187 716.468 822.387 704.768 C 809.987 683.168 801.787 659.468 798.087 634.868 C 792.187 605.668 788.387 576.568 790.287 546.568 L 790.287 532.968 C 788.987 529.868 774.487 -807.232 780.287 -814.132 Z" fill="#599636"/>
    <path d="M 780.287 -817.032 C 778.387 -820.932 776.387 -818.032 774.387 -816.032 C 775.387 -796.532 768.487 -779.132 757.887 -762.532 C 746.187 -746.032 730.687 -733.332 715.087 -719.732 C 628.787 -645.032 560.787 -554.632 506.387 -453.632 C 433.887 -317.732 396.587 -172.032 386.087 -18.532 C 381.287 36.768 403.587 231.968 421.087 288.268 C 468.687 437.868 554.087 563.168 664.887 671.868 C 692.087 698.068 721.187 722.368 751.187 745.768 C 759.987 745.768 760.887 737.968 762.887 732.168 C 766.787 719.768 769.687 707.168 771.687 694.368 L 791.187 548.768 L 780.287 -817.032 Z" fill="#6cac48"/>
    <path d="M 827.887 788.068 C 829.787 765.768 840.487 747.368 852.187 728.868 C 840.487 724.068 831.787 714.368 824.987 703.668 C 819.087 693.468 814.287 682.768 810.487 671.568 C 796.887 630.868 793.987 587.968 790.087 546.368 L 790.087 521.168 C 785.287 525.068 784.187 558.068 784.187 562.968 C 781.387 607.068 775.487 650.768 766.687 694.068 C 763.787 711.568 761.887 729.068 751.087 744.568 C 751.087 746.468 751.087 748.468 752.087 751.368 C 769.587 802.868 774.387 855.268 777.287 908.768 L 777.287 928.268 C 777.287 951.568 776.287 946.668 795.687 954.468 C 803.487 957.368 812.187 958.368 819.987 964.168 C 825.887 964.168 826.787 959.368 826.787 955.368 L 823.887 923.268 L 823.887 833.868 C 822.987 818.268 825.887 802.768 827.887 788.068 Z" fill="#c2bfbf"/>
    <path d="M 0.017 1221.918 L 0.017 1265.112 C 0.017 1266.848 0.017 1268.584 0.324 1270.218 C 0.834 1275.324 4 1278.489 8.594 1279.918 C 12.884 1281.042 17.274 1281.858 21.665 1282.471 C 24.218 1282.778 25.035 1283.901 25.341 1286.658 C 25.647 1296.358 24.831 1297.482 15.436 1296.869 C -6.416 1295.746 -28.37 1295.439 -50.222 1296.869 L -52.264 1296.869 C -59.106 1297.176 -59.616 1296.563 -59.616 1289.721 C -59.616 1288.598 -59.31 1287.169 -59.31 1286.045 C -59.31 1284.003 -57.88 1282.88 -55.94 1282.88 C -51.345 1282.37 -47.159 1281.144 -42.87 1280.327 C -36.948 1278.897 -33.476 1275.222 -32.965 1269.197 C -32.148 1262.662 -32.148 1255.82 -32.148 1249.285 L -31.842 1173.109 C -31.638 1168.616 -34.088 1164.429 -38.071 1162.285 C -43.176 1159.426 -48.691 1157.18 -54.307 1155.444 C -56.043 1154.934 -57.677 1154.627 -59.106 1153.708 C -63.293 1151.666 -63.395 1147.989 -59.412 1145.743 C -57.982 1144.926 -56.247 1144.313 -54.613 1144.007 C -37.379 1141.456 -20.445 1137.18 -4.067 1131.243 C -0.697 1130.12 0.221 1130.426 0.528 1133.796 C 0.834 1135.838 0.528 1138.391 0.221 1140.331 C -0.289 1144.007 -0.289 1147.683 -0.289 1151.155 C -0.289 1152.585 0.017 1154.015 1.447 1154.831 C 2.877 1155.647 4.306 1154.831 5.633 1154.014 C 11.556 1149.419 17.581 1145.232 24.116 1141.556 C 33.51 1136.451 43.415 1131.856 54.239 1130.426 C 67.309 1128.69 78.644 1132.162 88.651 1140.637 C 92.735 1144.313 96.411 1148.5 99.475 1153.095 C 102.334 1157.282 102.64 1157.384 106.316 1154.525 C 117.14 1146.56 128.475 1139.515 140.728 1134.306 C 153.492 1128.894 166.562 1128.078 179.633 1132.57 C 193.01 1137.37 202.098 1146.764 207.51 1159.528 C 212.105 1169.739 214.045 1180.359 214.045 1191.388 L 214.045 1267.563 C 214.045 1272.669 216.087 1275.834 221.193 1278.387 C 226.605 1280.429 232.527 1281.552 238.245 1282.676 C 241.921 1283.493 241.921 1283.493 241.921 1287.271 C 241.411 1296.665 240.491 1297.176 231.404 1296.665 C 208.619 1295.337 185.775 1295.337 162.989 1296.665 C 158.394 1296.971 158.394 1296.971 158.189 1292.376 L 158.189 1290.946 C 157.883 1283.288 157.883 1283.288 165.337 1281.552 L 172.689 1279.51 C 177.795 1278.285 181.471 1273.69 181.471 1268.38 L 182.288 1247.038 L 181.778 1191.388 C 181.573 1186.384 180.552 1181.482 178.612 1176.888 C 171.464 1159.528 155.841 1153.299 140.83 1155.035 C 129.496 1156.158 119.489 1160.754 110.094 1167.289 C 108.052 1168.719 106.724 1170.454 106.929 1173.211 C 109.482 1191.387 107.746 1209.563 108.052 1227.739 L 108.052 1267.257 C 108.052 1274.405 110.912 1277.774 117.752 1279.51 L 130.823 1282.37 C 132.865 1282.676 133.989 1283.493 133.989 1285.74 L 133.989 1287.781 C 133.682 1295.746 133.172 1296.052 125.207 1296.052 C 102.436 1294.929 79.767 1295.236 57.302 1296.052 C 49.644 1296.359 49.032 1295.542 49.337 1287.782 C 49.644 1283.186 50.154 1282.982 54.443 1282.063 L 63.837 1280.327 C 72.109 1278.591 75.172 1275.527 75.785 1266.644 L 76.601 1247.549 L 76.091 1190.469 C 75.581 1183.32 74.049 1176.581 70.168 1170.046 C 64.45 1159.528 55.566 1154.116 43.415 1153.606 C 31.161 1152.789 20.44 1157.282 10.126 1163 C 2.978 1167.187 -0.084 1172.088 0.426 1180.36 L 0.426 1221.817 L 0.017 1221.918 Z M 535.392 1223.655 L 535.392 1263.683 C 535.392 1266.542 535.597 1269.401 535.903 1272.158 C 536.107 1276.038 538.966 1279.306 542.745 1280.123 C 547.646 1281.553 552.649 1282.369 557.755 1282.676 C 560.615 1282.982 561.125 1284.106 561.431 1286.352 L 561.431 1288.394 C 561.125 1298.299 560.001 1299.524 550.301 1298.912 C 528.653 1297.482 507.107 1297.788 485.561 1298.912 L 477.291 1299.218 C 475.555 1299.218 475.248 1298.401 474.738 1297.176 C 473.922 1293.235 473.922 1289.169 474.738 1285.229 C 475.044 1283.493 476.168 1283.186 477.903 1282.676 C 482.09 1282.166 485.562 1281.246 489.544 1280.633 C 496.692 1278.898 499.244 1276.038 499.449 1268.686 L 500.266 1244.792 L 500.266 1174.845 C 500.266 1169.739 498.224 1166.574 493.731 1164.327 C 488.625 1161.468 483.213 1159.528 477.495 1157.486 C 475.759 1156.976 474.125 1156.363 472.695 1155.444 C 469.019 1152.891 468.509 1149.214 472.185 1146.356 C 473.819 1145.028 475.759 1144.211 477.903 1144.109 C 496.079 1141.25 513.745 1137.268 530.797 1130.426 C 532.84 1129.609 533.657 1130.12 534.473 1131.856 C 535.289 1133.592 535.597 1135.532 535.29 1137.574 L 534.473 1150.951 C 534.473 1152.687 533.657 1155.137 534.984 1155.75 C 536.72 1156.873 537.844 1154.32 539.273 1153.708 C 547.647 1146.66 556.918 1140.754 566.843 1136.144 C 575.625 1131.958 584.713 1129.303 594.924 1129.916 C 614.019 1131.039 627.6 1140.739 636.382 1157.486 C 640.977 1166.268 642.917 1175.968 643.734 1185.873 L 644.551 1206.704 L 644.857 1269.504 C 645.163 1274.303 646.899 1277.468 651.699 1279.204 C 656.698 1280.836 661.82 1282.066 667.015 1282.88 C 671.61 1283.39 671.815 1284.31 672.121 1288.598 L 672.121 1290.028 C 671.611 1299.728 670.998 1299.933 661.297 1299.422 C 640.107 1298.298 618.872 1298.298 597.681 1299.422 C 594.821 1299.728 591.963 1299.422 589.41 1299.728 C 587.674 1299.728 586.55 1299.422 586.244 1297.686 C 585.734 1294.01 585.121 1290.334 585.938 1286.352 C 586.244 1284.616 587.061 1283.799 589.104 1283.492 L 602.174 1281.45 C 606.769 1280.327 609.322 1277.264 609.832 1273.18 L 610.343 1265.215 L 610.037 1205.785 C 610.037 1198.944 609.73 1192.102 608.301 1185.363 C 604.931 1170.761 593.801 1160.447 578.791 1158.915 C 565.72 1157.485 553.875 1160.958 542.949 1168.003 C 537.537 1171.373 535.29 1176.275 535.29 1182.197 L 535.29 1225.084 C 535.29 1224.267 535.29 1224.267 535.597 1224.267 L 535.392 1223.655 Z" fill="#47474a"/>
    <path d="M 1367.507 1143.292 C 1364.341 1122.563 1356.683 1104.082 1343.306 1087.845 C 1331.665 1073.55 1316.654 1062.419 1299.5 1055.475 C 1281.63 1048.124 1262.535 1045.775 1243.236 1045.265 C 1235.271 1044.958 1126.726 1046.694 1118.761 1045.265 C 1116.718 1044.958 1115.391 1045.571 1114.166 1047.307 C 1112.736 1049.349 1111.306 1051.595 1110.49 1053.842 C 1107.12 1061.5 1107.12 1060.99 1115.289 1062.112 C 1122.13 1063.236 1128.666 1063.849 1135.201 1065.789 C 1141.123 1067.831 1145.412 1071.201 1146.841 1077.736 C 1147.352 1080.902 1147.965 1180.87 1147.965 1227.433 L 1146.842 1260.722 C 1146.535 1263.274 1146.331 1265.827 1145.412 1268.074 C 1144.289 1271.444 1142.246 1274.303 1138.877 1275.732 C 1135.099 1277.468 1131.117 1278.592 1126.93 1278.898 C 1119.271 1279.714 1118.148 1280.021 1115.595 1288.598 L 1114.778 1291.764 C 1114.268 1295.44 1114.472 1296.052 1118.148 1296.052 L 1203.105 1296.869 L 1236.395 1296.359 L 1259.369 1293.499 C 1285.51 1288.7 1308.792 1277.876 1328.704 1260.517 C 1340.038 1250.51 1349.33 1238.359 1355.968 1224.676 C 1363.932 1208.746 1367.302 1191.387 1368.221 1173.824 C 1369.753 1163.714 1369.242 1153.504 1367.506 1143.292 L 1367.507 1143.292 Z M 1326.355 1183.627 C 1325.232 1201.803 1321.555 1219.468 1312.162 1235.296 C 1300.214 1256.024 1283.162 1270.524 1259.574 1275.63 C 1249.362 1277.672 1239.151 1278.795 1228.429 1277.366 C 1220.771 1276.549 1213.419 1275.63 1206.271 1273.077 C 1193.507 1268.482 1188.911 1260.619 1188.708 1248.162 L 1188.401 1076.817 C 1188.401 1066.606 1192.996 1064.359 1200.348 1064.053 C 1211.478 1063.236 1222.813 1063.543 1233.841 1064.563 C 1245.686 1065.687 1257.225 1068.546 1268.253 1072.835 C 1276.423 1076.205 1283.978 1080.902 1290.718 1086.722 C 1306.035 1099.792 1316.246 1116.232 1321.862 1135.532 C 1326.457 1151.155 1327.274 1167.084 1326.457 1183.014 L 1326.355 1183.627 Z M 1603.692 1211.503 C 1603.692 1209.767 1603.692 1208.338 1603.386 1206.704 C 1600.833 1191.081 1592.562 1179.134 1579.798 1170.046 C 1571.527 1164.123 1562.235 1160.141 1552.534 1157.282 C 1550.798 1156.772 1549.369 1156.158 1547.734 1155.852 C 1548.041 1154.422 1548.858 1154.116 1549.777 1153.81 C 1555.495 1150.95 1560.907 1147.887 1565.707 1143.599 C 1574.488 1136.247 1580.309 1127.159 1583.27 1116.029 C 1585.006 1110.106 1585.006 1104.081 1584.393 1097.852 C 1583.474 1083.046 1575.816 1069.465 1563.664 1060.888 C 1550.594 1051.187 1535.277 1047.205 1519.348 1047 C 1488.612 1046.49 1457.672 1047 1427.038 1047 C 1418.256 1047 1409.475 1047.51 1400.285 1046.183 C 1398.549 1045.877 1396.098 1045.367 1394.873 1047.307 C 1392.83 1050.983 1390.277 1054.659 1389.461 1058.947 C 1389.154 1060.99 1389.767 1062.113 1392.013 1062.317 L 1411.619 1065.177 C 1419.277 1066.3 1424.689 1070.588 1425.302 1077.43 C 1425.812 1082.127 1426.119 1086.926 1426.119 1091.623 L 1425.609 1144.722 L 1425.302 1249.796 C 1425.302 1256.024 1424.485 1262.049 1423.26 1268.278 C 1422.647 1272.362 1419.788 1275.63 1415.908 1276.753 C 1410.189 1278.489 1404.778 1280.123 1398.855 1280.123 C 1395.587 1279.817 1392.524 1281.859 1391.503 1284.923 C 1390.38 1287.475 1389.461 1290.334 1388.95 1292.887 C 1388.44 1296.257 1389.256 1297.482 1392.626 1297.074 C 1395.179 1296.767 1488.918 1299.116 1506.584 1297.38 C 1517.101 1296.257 1527.414 1294.827 1537.83 1291.662 C 1555.7 1285.943 1572.242 1277.774 1585.312 1263.785 C 1596.136 1252.45 1602.365 1238.767 1602.876 1222.838 C 1603.692 1219.162 1603.692 1215.486 1603.692 1211.503 Z M 1465.841 1094.993 L 1466.658 1072.223 C 1466.658 1067.933 1468.393 1065.993 1472.58 1065.074 C 1479.422 1063.644 1486.263 1064.257 1493.003 1064.564 C 1499.844 1065.074 1506.379 1065.994 1513.221 1067.934 C 1525.679 1071.609 1535.379 1078.757 1541.098 1090.704 C 1543.65 1096.116 1545.08 1102.039 1545.08 1108.064 C 1545.386 1116.028 1544.774 1123.687 1541.71 1131.345 C 1536.91 1141.863 1529.252 1148.705 1518.122 1150.645 C 1506.992 1152.687 1475.542 1151.768 1470.64 1151.768 C 1466.351 1151.768 1466.045 1151.258 1466.045 1146.968 L 1466.045 1120.215 C 1465.33 1111.944 1465.33 1103.571 1465.739 1095.197 L 1465.841 1094.993 Z M 1558.151 1247.855 C 1553.351 1260.619 1544.467 1269.503 1532.01 1274.303 C 1525.168 1276.855 1518.326 1278.489 1511.179 1277.979 C 1502.397 1277.672 1493.615 1277.979 1484.731 1276.243 C 1472.784 1273.69 1467.372 1262.355 1466.555 1254.084 C 1465.125 1239.584 1466.045 1224.778 1465.739 1214.056 L 1465.739 1176.581 C 1465.739 1171.986 1466.249 1170.658 1471.151 1170.658 L 1497.904 1170.965 L 1516.08 1173.007 C 1528.844 1175.867 1540.485 1180.665 1549.573 1190.57 C 1556.925 1198.535 1560.907 1208.134 1561.826 1218.651 C 1562.643 1228.556 1562.133 1238.257 1558.456 1247.651 L 1558.151 1247.855 Z" fill="#c2bfbf"/>
    <path d="M 836.216 1162.285 L 843.568 1163.408 C 851.532 1163.715 860.927 1160.856 863.786 1149.725 C 865.318 1144.421 865.318 1138.793 863.786 1133.49 C 862.05 1133.49 861.233 1134.92 860.416 1135.532 C 856.128 1138.902 851.328 1140.944 846.223 1141.454 C 836.011 1142.578 825.8 1141.964 815.793 1138.289 L 801.906 1133.489 C 792.206 1130.324 781.994 1128.997 771.783 1129.507 C 757.283 1130.63 743.702 1135.43 730.836 1142.271 C 717.153 1149.623 707.554 1160.754 702.959 1175.764 C 700.406 1184.546 700.099 1193.634 701.223 1202.722 C 704.083 1223.451 714.906 1237.95 734.205 1245.609 C 735.329 1245.915 736.248 1246.426 737.371 1246.732 C 739.924 1248.162 740.23 1249.592 737.881 1251.532 L 730.734 1256.331 L 713.681 1266.848 C 709.392 1269.401 708.881 1271.443 710.311 1275.936 C 712.047 1281.246 715.111 1285.943 719.399 1289.619 C 723.279 1292.989 727.67 1295.644 732.469 1297.584 C 735.635 1299.014 735.635 1299.626 732.776 1302.179 L 716.54 1313.82 C 711.128 1318.007 705.716 1322.091 701.223 1327.503 C 694.805 1334.326 692.236 1343.912 694.381 1353.031 C 696.526 1362.936 701.631 1371.82 709.188 1378.559 C 716.562 1385.423 725.556 1390.307 735.328 1392.753 C 751.258 1397.348 767.698 1397.553 783.934 1394.489 C 807.216 1390.2 827.638 1379.887 843.568 1362.426 C 854.698 1350.785 861.131 1337.102 861.744 1320.866 C 863.071 1301.362 850.001 1283.901 831.008 1279.408 L 815.691 1276.549 L 768.821 1272.362 C 763.716 1272.056 758.611 1271.239 754.321 1268.686 C 748.91 1265.316 747.48 1258.781 750.951 1254.493 C 753.505 1251.327 756.671 1249.387 760.652 1249.081 L 769.74 1248.264 C 787.701 1246.437 804.564 1238.76 817.733 1226.412 C 824.767 1219.886 829.797 1211.492 832.233 1202.212 C 835.603 1189.958 835.603 1177.296 832.743 1164.838 C 831.927 1161.673 832.233 1161.468 836.113 1161.978 L 836.216 1162.285 Z M 766.575 1303.813 C 768.311 1304.119 769.945 1303.813 771.681 1303.813 C 783.628 1304.323 795.881 1305.243 807.522 1308.408 C 811.3 1309.531 815.078 1310.961 818.652 1312.697 C 829.987 1318.926 834.275 1329.75 832.846 1341.39 C 831.11 1354.154 824.064 1363.242 812.934 1369.267 C 805.582 1373.454 797.311 1375.19 788.734 1376.109 C 785.568 1376.415 782.811 1376.109 779.645 1376.109 C 769.74 1376.415 760.04 1375.292 750.645 1371.309 C 744.11 1368.756 738.698 1365.08 733.899 1359.975 C 723.994 1350.07 719.297 1331.894 734.205 1317.088 C 743.293 1308.612 753.505 1302.69 766.575 1303.813 Z M 799.047 1215.179 C 793.124 1230.19 779.952 1234.785 766.983 1232.743 C 755.036 1231.007 746.255 1224.472 740.536 1213.648 C 733.184 1199.148 731.142 1184.138 735.431 1168.514 C 738.596 1156.874 745.641 1148.092 758.201 1146.049 C 774.131 1143.19 789.346 1148.909 797.413 1164.838 C 801.6 1172.496 803.335 1181.891 803.335 1195.268 C 803.029 1200.679 801.905 1208.032 799.047 1215.179 Z M 441.041 1195.779 C 438.488 1180.461 432.77 1166.472 422.251 1154.831 C 406.629 1137.471 386.717 1129.916 364.252 1129.813 C 344.647 1129.507 326.164 1135.225 309.724 1145.437 C 293.488 1155.137 281.644 1170.658 276.435 1188.937 C 271.636 1205.377 271.84 1222.225 275.619 1238.972 C 285.523 1283.902 320.242 1303.2 361.699 1300.342 C 373.953 1299.524 385.594 1295.542 396.622 1290.13 C 413.062 1282.472 425.009 1270.218 433.28 1254.084 C 439.815 1240.708 442.674 1226.514 442.368 1210.278 L 441.041 1195.779 Z M 400.706 1258.884 C 396.52 1271.954 385.083 1281.348 371.4 1282.778 C 358.942 1284.514 347.2 1281.348 336.784 1273.996 C 329.228 1268.38 323.101 1261.13 318.914 1252.655 C 307.274 1228.76 305.231 1203.845 311.256 1178.215 C 313.196 1170.25 317.28 1163.102 323.203 1157.485 C 333.72 1147.785 345.974 1145.539 359.555 1148.398 C 372.625 1151.258 382.53 1158.303 390.699 1169.127 C 398.868 1179.951 402.646 1192.408 404.893 1205.479 C 406.016 1212.014 406.016 1218.855 406.323 1223.042 C 406.323 1236.725 405.199 1247.958 400.91 1258.884 L 400.706 1258.884 Z M 1061.884 1198.127 C 1059.842 1181.687 1053.613 1166.574 1041.972 1154.117 C 1026.655 1137.37 1006.743 1130.222 984.585 1129.916 C 965.49 1129.609 947.927 1135.021 931.691 1144.416 C 913.515 1155.239 900.955 1170.556 896.156 1191.286 C 890.437 1213.954 892.786 1237.848 902.997 1258.884 C 912.391 1278.795 928.321 1291.56 949.357 1297.278 C 972.637 1303.507 994.797 1300.648 1016.444 1290.13 C 1035.233 1281.042 1048.507 1266.848 1056.268 1247.55 C 1060.863 1236.215 1062.497 1223.961 1062.803 1209.767 C 1063.007 1207.215 1062.395 1202.62 1061.884 1198.127 Z M 1022.673 1255.207 C 1018.078 1270.524 1008.479 1280.531 992.243 1282.777 C 980.296 1284.514 968.962 1281.655 958.75 1274.813 C 949.969 1268.891 943.74 1260.926 939.145 1251.531 C 934.039 1241.627 931.18 1231.109 930.057 1220.285 C 928.321 1206.908 928.321 1193.838 931.487 1180.461 C 932.099 1177.806 932.917 1175.253 934.039 1172.803 C 942.004 1152.891 959.567 1143.803 980.399 1148.398 C 994.286 1151.563 1004.803 1159.222 1012.768 1170.863 C 1020.426 1182.197 1024.102 1194.757 1025.838 1208.236 C 1026.655 1213.648 1026.962 1219.366 1026.655 1224.166 C 1026.655 1235.296 1025.838 1245.506 1022.469 1255.412 L 1022.673 1255.207 Z" fill="#47474a"/>
  </g>
  <path fill-rule="evenodd" clip-rule="evenodd" d="M 129.232 -983.406 L 96.611 -1002.239 C 94.373 -1003.531 91.616 -1003.531 89.378 -1002.239 L 56.758 -983.406 C 54.52 -982.113 53.141 -979.726 53.141 -977.141 L 53.141 -939.474 C 53.141 -936.89 54.52 -934.502 56.758 -933.21 L 89.378 -914.377 C 91.616 -913.085 94.373 -913.085 96.611 -914.377 L 129.232 -933.21 C 131.47 -934.502 132.848 -936.89 132.848 -939.474 L 132.848 -977.141 C 132.848 -979.726 131.47 -982.113 129.232 -983.406 Z M 98.161 -1004.924 C 94.964 -1006.769 91.025 -1006.769 87.828 -1004.924 L 55.208 -986.09 C 52.011 -984.244 50.041 -980.833 50.041 -977.141 L 50.041 -939.474 C 50.041 -935.783 52.011 -932.372 55.208 -930.526 L 87.828 -911.692 C 91.025 -909.847 94.964 -909.847 98.161 -911.692 L 130.782 -930.526 C 133.979 -932.372 135.948 -935.783 135.948 -939.474 L 135.948 -977.141 C 135.948 -980.833 133.979 -984.244 130.782 -986.09 L 98.161 -1004.924 Z" style="fill: rgb(55, 160, 78);"/>
</svg>