<?xml version="1.0" encoding="utf-8"?>
<svg viewBox="517.895 154.0852 85.907 95.9995" xmlns="http://www.w3.org/2000/svg">
  <defs>
    <linearGradient id="logosPinia0" x1="55.342%" x2="42.817%" y1="0%" y2="42.863%">
      <stop offset="0" stop-color="#52CE63"/>
      <stop offset="1" stop-color="#51A256"/>
    </linearGradient>
    <linearGradient id="logosPinia1" x1="55.349%" x2="42.808%" y1="0%" y2="42.863%">
      <stop offset="0" stop-color="#52CE63"/>
      <stop offset="1" stop-color="#51A256"/>
    </linearGradient>
    <linearGradient id="logosPinia2" x1="50%" x2="50%" y1="0%" y2="58.811%">
      <stop offset="0" stop-color="#8AE99C"/>
      <stop offset="1" stop-color="#52CE63"/>
    </linearGradient>
    <linearGradient id="logosPinia3" x1="51.378%" x2="44.585%" y1="17.473%" y2="100%">
      <stop offset="0" stop-color="#FFE56C"/>
      <stop offset="1" stop-color="#FFC63A"/>
    </linearGradient>
  </defs>
  <g transform="matrix(1, 0, 0, 1, 42.85198656994089, 5.356490215010794)">
    <path d="M 514.458 150.667 C 516.933 149.238 519.983 149.238 522.458 150.667 L 556.027 170.049 C 558.502 171.478 560.027 174.119 560.027 176.977 L 560.027 215.739 C 560.027 218.597 558.502 221.238 556.027 222.667 L 522.458 242.049 C 519.983 243.478 516.933 243.478 514.458 242.049 L 480.889 222.667 C 478.414 221.238 476.889 218.597 476.889 215.739 L 476.889 176.977 C 476.889 174.119 478.414 171.478 480.889 170.049 L 514.458 150.667 Z" fill="white" style=""/>
  </g>
  <path fill-rule="evenodd" clip-rule="evenodd" d="M 597.086 176.987 L 564.465 158.154 C 562.227 156.862 559.47 156.862 557.232 158.154 L 524.612 176.987 C 522.374 178.28 520.995 180.667 520.995 183.252 L 520.995 220.919 C 520.995 223.503 522.374 225.891 524.612 227.183 L 557.232 246.016 C 559.47 247.308 562.227 247.308 564.465 246.016 L 597.086 227.183 C 599.324 225.891 600.702 223.503 600.702 220.919 L 600.702 183.252 C 600.702 180.667 599.324 178.28 597.086 176.987 Z M 566.015 155.469 C 562.818 153.624 558.879 153.624 555.682 155.469 L 523.062 174.303 C 519.865 176.149 517.895 179.56 517.895 183.252 L 517.895 220.919 C 517.895 224.61 519.865 228.021 523.062 229.867 L 555.682 248.701 C 558.879 250.546 562.818 250.546 566.015 248.701 L 598.636 229.867 C 601.833 228.021 603.802 224.61 603.802 220.919 L 603.802 183.252 C 603.802 179.56 601.833 176.149 598.636 174.303 L 566.015 155.469 Z" style="fill: rgb(55, 160, 78);" transform="matrix(1, 0, 0, 1, 5.684341886080802e-14, 0)"/>
  <g transform="matrix(0.2109380066394806, 0, 0, 0.2109380066394806, 336.42447400725587, 143.10927032097084)">
    <path fill="url(#logosPinia0)" d="M 1016.663 272.161 C 1047.029 269.176 1057.743 244.513 1061.398 207.338 C 1065.052 170.163 1040.224 136.524 1029.896 137.539 C 1019.568 138.554 986.746 177.861 983.091 215.036 C 979.437 252.211 986.296 275.146 1016.663 272.161" style="" transform="matrix(0.78801, -0.615662, 0.615662, 0.78801, 90.457938, 672.645453)"/>
    <path fill="url(#logosPinia1)" d="M 1133.557 285.11 C 1163.924 288.096 1169.951 265.078 1166.297 227.903 C 1162.642 190.728 1130.652 151.503 1120.324 150.488 C 1109.996 149.473 1084.335 183.03 1087.99 220.205 C 1091.644 257.38 1103.191 282.125 1133.557 285.11" style="" transform="matrix(0.615662, 0.78801, -0.78801, 0.615662, 605.040316, -804.6824)"/>
    <path fill="url(#logosPinia2)" d="M 1078.335 250.434 C 1105.676 250.434 1113.213 224.25 1113.213 183.421 C 1113.213 142.591 1087.634 102.578 1078.335 102.578 C 1069.036 102.578 1042.708 142.591 1042.708 183.421 C 1042.708 224.25 1050.994 250.434 1078.335 250.434" style="" transform="matrix(0.992546, 0.121869, -0.121869, 0.992546, 29.545704, -130.054302)"/>
    <path fill="url(#logosPinia3)" d="M 1062.489 429.14 C 1119.385 429.14 1165.527 412.612 1165.527 337.658 C 1165.527 262.703 1119.385 201.196 1062.489 201.196 C 1005.592 201.196 959.487 262.703 959.487 337.658 C 959.487 412.612 1005.592 429.14 1062.489 429.14"/>
    <ellipse cx="1114.53" cy="315.51" fill="#EAADCC" rx="14.717" ry="6.845"/>
    <ellipse cx="57.273" cy="212.57" fill="#EAADCC" rx="14.717" ry="6.845" transform="matrix(0.992546, 0.121869, -0.121869, 0.992546, 975.435725, 93.437219)"/>
    <path d="M 1045.369 309.118 C 1044.514 307.788 1042.54 307.882 1041.816 309.288 C 1041.465 309.968 1041.522 310.787 1041.963 311.413 C 1045.114 316.089 1049.96 318.803 1056.336 319.532 C 1062.684 320.257 1068.352 318.63 1073.213 314.68 C 1074.465 313.714 1074.201 311.755 1072.739 311.154 C 1072.026 310.861 1071.209 310.992 1070.623 311.493 C 1066.624 314.742 1062.06 316.052 1056.803 315.451 C 1051.573 314.853 1047.817 312.751 1045.369 309.118 M 1014.921 277.463 C 1018.823 277.321 1022.62 278.741 1025.472 281.408 C 1028.331 284.066 1030.013 287.755 1030.144 291.658 C 1030.285 295.559 1028.865 299.356 1026.199 302.208 C 1023.54 305.067 1019.851 306.748 1015.949 306.88 C 1012.047 307.021 1008.25 305.601 1005.398 302.935 C 1002.54 300.275 1000.859 296.587 1000.728 292.685 C 1000.587 288.783 1002.006 284.986 1004.672 282.135 C 1007.331 279.276 1011.019 277.594 1014.921 277.463"/>
    <path fill="#FFF" d="M 1015.693 289.765 C 1015.581 286.077 1011.52 283.894 1008.383 285.834 C 1006.913 286.744 1006.046 288.374 1006.115 290.101 C 1006.244 293.788 1010.316 295.952 1013.445 293.996 C 1014.897 293.089 1015.754 291.476 1015.694 289.765"/>
    <path d="M 1104.093 281.199 C 1107.995 281.057 1111.793 282.476 1114.645 285.143 C 1117.504 287.802 1119.184 291.491 1119.315 295.393 C 1119.457 299.294 1118.037 303.091 1115.371 305.944 C 1112.712 308.803 1109.023 310.484 1105.121 310.615 C 1101.22 310.756 1097.423 309.336 1094.571 306.67 C 1091.712 304.011 1090.03 300.322 1089.899 296.42 C 1089.758 292.518 1091.178 288.721 1093.844 285.87 C 1096.503 283.011 1100.192 281.33 1104.094 281.199"/>
    <path fill="#FFF" d="M 1014.813 274.385 C 1024.637 274.042 1032.879 281.727 1033.222 291.55 C 1033.565 301.374 1025.88 309.615 1016.056 309.958 C 1006.232 310.301 997.992 302.616 997.649 292.792 C 997.306 282.969 1004.99 274.728 1014.813 274.385 M 1027.065 291.765 C 1026.841 285.342 1021.452 280.317 1015.028 280.542 C 1008.606 280.766 1003.581 286.154 1003.806 292.577 C 1004.03 299.001 1009.418 304.025 1015.841 303.801 C 1022.264 303.577 1027.289 298.189 1027.065 291.765 M 1103.986 278.12 C 1113.81 277.777 1122.051 285.462 1122.394 295.285 C 1122.737 305.109 1115.052 313.35 1105.229 313.693 C 1095.405 314.036 1087.164 306.351 1086.821 296.528 C 1086.478 286.704 1094.163 278.463 1103.986 278.12 M 1116.237 295.5 C 1116.013 289.077 1110.625 284.053 1104.201 284.277 C 1097.778 284.501 1092.753 289.89 1092.978 296.313 C 1093.202 302.736 1098.59 307.761 1105.013 307.537 C 1111.437 307.312 1116.461 301.924 1116.237 295.5"/>
    <path fill="#FFF" d="M 1104.866 293.501 C 1104.757 289.813 1100.698 287.627 1097.559 289.564 C 1096.086 290.474 1095.218 292.106 1095.288 293.836 C 1095.437 297.522 1099.52 299.664 1102.638 297.692 C 1104.069 296.786 1104.916 295.193 1104.866 293.501"/>
    <path fill="#ECB732" d="M 987.186 341.993 L 1009.516 365.228 L 1025.538 348.184 C 1027.551 346.099 1031.067 346.975 1031.866 349.76 C 1032.227 351.019 1031.908 352.375 1031.024 353.341 L 1014.741 370.665 L 1037.841 394.701 C 1039.849 396.791 1038.842 400.271 1036.028 400.965 C 1034.722 401.288 1033.343 400.889 1032.411 399.919 L 1009.577 376.158 L 998.852 387.568 C 996.867 389.679 993.34 388.85 992.504 386.075 C 992.116 384.787 992.445 383.39 993.366 382.41 L 1004.352 370.722 L 981.757 347.211 C 979.749 345.121 980.756 341.64 983.57 340.946 C 984.876 340.624 986.255 341.023 987.187 341.993 M 1137.143 341.993 C 1139.151 339.903 1142.669 340.771 1143.474 343.555 C 1143.848 344.847 1143.504 346.241 1142.572 347.211 L 1119.976 370.722 L 1130.964 382.41 C 1132.342 383.876 1132.324 386.167 1130.922 387.611 L 1130.799 387.732 C 1129.284 389.156 1126.901 389.082 1125.477 387.567 L 1114.752 376.157 L 1091.918 399.919 C 1090.524 401.37 1088.234 401.468 1086.721 400.141 L 1086.594 400.025 C 1085.095 398.584 1085.048 396.2 1086.489 394.701 L 1109.589 370.665 L 1093.305 353.341 C 1091.928 351.874 1091.946 349.584 1093.347 348.141 L 1093.47 348.02 C 1094.985 346.596 1097.367 346.669 1098.791 348.184 L 1114.812 365.228 L 1137.143 341.993 Z"/>
    <path fill="#FFC73B" d="M 1085.705 225.573 C 1087.174 227.043 1087.174 229.425 1085.705 230.896 L 1068.175 248.427 L 1078.859 259.113 C 1080.282 260.535 1080.335 262.826 1078.979 264.313 L 1078.859 264.438 C 1077.389 265.908 1075.005 265.908 1073.535 264.438 L 1062.849 253.752 L 1052.163 264.438 C 1050.118 266.492 1046.617 265.562 1045.86 262.764 C 1045.508 261.459 1045.881 260.066 1046.839 259.113 L 1057.524 248.427 L 1039.994 230.897 C 1038.571 229.474 1038.518 227.183 1039.874 225.697 L 1039.994 225.572 C 1041.464 224.102 1043.848 224.102 1045.318 225.572 L 1062.849 243.102 L 1080.38 225.572 C 1081.85 224.101 1084.235 224.101 1085.705 225.572"/>
  </g>
</svg>