<?xml version="1.0" encoding="utf-8"?>
<svg viewBox="538.196 120.3215 85.907 96" xmlns="http://www.w3.org/2000/svg">
  <defs>
    <linearGradient id="paint0_linear" x1="24" y1="24" x2="50.4499" y2="46.7879" gradientUnits="userSpaceOnUse" gradientTransform="matrix(1, 0, 0, 1, 533.195565, 120.321154)">
      <stop stop-color="#5A9FD4"/>
      <stop offset="1" stop-color="#306998"/>
    </linearGradient>
    <linearGradient id="paint1_linear" x1="54.1964" y1="65.6617" x2="44.7574" y2="52.2888" gradientUnits="userSpaceOnUse" gradientTransform="matrix(1, 0, 0, 1, 533.195565, 120.321154)">
      <stop stop-color="#FFD43B"/>
      <stop offset="1" stop-color="#FFE873"/>
    </linearGradient>
  </defs>
  <path d="M 577.196 122.631 C 579.671 121.201 582.72 121.201 585.196 122.631 L 618.765 142.012 C 621.24 143.441 622.765 146.082 622.765 148.94 L 622.765 187.702 C 622.765 190.56 621.24 193.201 618.765 194.63 L 585.196 214.012 C 582.72 215.441 579.671 215.441 577.196 214.012 L 543.626 194.63 C 541.151 193.201 539.626 190.56 539.626 187.702 L 539.626 148.94 C 539.626 146.082 541.151 143.441 543.626 142.012 L 577.196 122.631 Z" fill="white" transform="matrix(1, 0, 0, 1, 5.684341886080802e-14, 0)"/>
  <path fill-rule="evenodd" clip-rule="evenodd" d="M 617.386 143.224 L 584.766 124.39 C 582.528 123.098 579.771 123.098 577.533 124.39 L 544.912 143.224 C 542.674 144.516 541.295 146.904 541.295 149.488 L 541.295 187.155 C 541.295 189.739 542.674 192.127 544.912 193.419 L 577.533 212.252 C 579.771 213.544 582.528 213.544 584.766 212.252 L 617.386 193.419 C 619.624 192.127 621.003 189.739 621.003 187.155 L 621.003 149.488 C 621.003 146.904 619.624 144.516 617.386 143.224 Z M 586.316 121.706 C 583.119 119.86 579.18 119.86 575.983 121.706 L 543.362 140.539 C 540.165 142.385 538.196 145.796 538.196 149.488 L 538.196 187.155 C 538.196 190.846 540.165 194.257 543.362 196.103 L 575.983 214.937 C 579.18 216.783 583.119 216.783 586.316 214.937 L 618.936 196.103 C 622.133 194.257 624.103 190.846 624.103 187.155 L 624.103 149.488 C 624.103 145.796 622.133 142.385 618.936 140.539 L 586.316 121.706 Z" fill="#3770A0" transform="matrix(1, 0, 0, 1, 5.684341886080802e-14, 0)"/>
  <path d="M 580.91 144.322 C 578.931 144.331 577.04 144.498 575.377 144.789 C 570.478 145.645 569.588 147.437 569.588 150.741 L 569.588 155.106 L 581.166 155.106 L 581.166 156.56 L 569.588 156.56 L 565.243 156.56 C 561.879 156.56 558.932 158.561 558.011 162.366 C 556.948 166.728 556.9 169.45 558.011 174.004 C 558.834 177.394 560.799 179.81 564.164 179.81 L 568.145 179.81 L 568.145 174.578 C 568.145 170.798 571.451 167.464 575.377 167.464 L 586.942 167.464 C 590.161 167.464 592.73 164.843 592.73 161.645 L 592.73 150.741 C 592.73 147.638 590.083 145.307 586.942 144.789 C 584.953 144.461 582.889 144.312 580.91 144.322 Z M 574.649 147.832 C 575.844 147.832 576.821 148.813 576.821 150.02 C 576.821 151.223 575.844 152.196 574.649 152.196 C 573.448 152.196 572.476 151.223 572.476 150.02 C 572.476 148.813 573.448 147.832 574.649 147.832 Z" fill="url(#paint0_linear)" transform="matrix(1, 0, 0, 1, 5.684341886080802e-14, 0)"/>
  <path d="M 594.174 156.56 L 594.174 161.645 C 594.174 165.588 590.795 168.906 586.942 168.906 L 575.377 168.906 C 572.21 168.906 569.588 171.587 569.588 174.725 L 569.588 185.629 C 569.588 188.732 572.317 190.558 575.377 191.448 C 579.042 192.514 582.557 192.707 586.942 191.448 C 589.856 190.613 592.73 188.934 592.73 185.629 L 592.73 181.265 L 581.166 181.265 L 581.166 179.81 L 592.73 179.81 L 598.519 179.81 C 601.884 179.81 603.138 177.489 604.308 174.004 C 605.517 170.417 605.466 166.968 604.308 162.366 C 603.477 159.053 601.888 156.56 598.519 156.56 L 594.174 156.56 Z M 587.67 184.174 C 588.87 184.174 589.843 185.147 589.843 186.35 C 589.843 187.557 588.87 188.539 587.67 188.539 C 586.474 188.539 585.498 187.557 585.498 186.35 C 585.498 185.147 586.474 184.174 587.67 184.174 Z" fill="url(#paint1_linear)" transform="matrix(1, 0, 0, 1, 5.684341886080802e-14, 0)"/>
</svg>