<?xml version="1.0" encoding="utf-8"?>
<svg viewBox="809.8634 -999.424 85.907 95.9995" xmlns="http://www.w3.org/2000/svg">
  <linearGradient id="gradient-1" x1="-2.778%" y1="32%" y2="67.556%">
    <stop offset="0" stop-color="#2298bd"/>
    <stop offset="1" stop-color="#0ed7b5"/>
  </linearGradient>
  <g transform="matrix(1, 0, 0, 1, 299.9254455566406, 24.918771743774414)">
    <g transform="matrix(1, 0, 0, 1, 34.893635, -1173.072144)">
      <path d="M 514.458 150.667 C 516.933 149.238 519.983 149.238 522.458 150.667 L 556.027 170.049 C 558.502 171.478 560.027 174.119 560.027 176.977 L 560.027 215.739 C 560.027 218.597 558.502 221.238 556.027 222.667 L 522.458 242.049 C 519.983 243.478 516.933 243.478 514.458 242.049 L 480.889 222.667 C 478.414 221.238 476.889 218.597 476.889 215.739 L 476.889 176.977 C 476.889 174.119 478.414 171.478 480.889 170.049 L 514.458 150.667 Z" style="" fill="white"/>
    </g>
    <path fill-rule="evenodd" clip-rule="evenodd" d="M 589.129 -1001.441 L 556.508 -1020.274 C 554.27 -1021.566 551.513 -1021.566 549.275 -1020.274 L 516.655 -1001.441 C 514.417 -1000.148 513.038 -997.761 513.038 -995.176 L 513.038 -957.509 C 513.038 -954.925 514.417 -952.537 516.655 -951.245 L 549.275 -932.412 C 551.513 -931.12 554.27 -931.12 556.508 -932.412 L 589.129 -951.245 C 591.367 -952.537 592.745 -954.925 592.745 -957.509 L 592.745 -995.176 C 592.745 -997.761 591.367 -1000.148 589.129 -1001.441 Z M 558.058 -1022.959 C 554.861 -1024.804 550.922 -1024.804 547.725 -1022.959 L 515.105 -1004.125 C 511.908 -1002.279 509.938 -998.868 509.938 -995.176 L 509.938 -957.509 C 509.938 -953.818 511.908 -950.407 515.105 -948.561 L 547.725 -929.727 C 550.922 -927.882 554.861 -927.882 558.058 -929.727 L 590.679 -948.561 C 593.876 -950.407 595.845 -953.818 595.845 -957.509 L 595.845 -995.176 C 595.845 -998.868 593.876 -1002.279 590.679 -1004.125 L 558.058 -1022.959 Z" style="fill: rgb(18, 201, 182);"/>
  </g>
  <path d="M 853.225 -967.685 C 846.692 -967.685 842.608 -964.418 840.975 -957.885 C 843.425 -961.152 846.283 -962.377 849.55 -961.56 C 851.414 -961.095 852.746 -959.742 854.22 -958.245 C 856.622 -955.807 859.403 -952.985 865.475 -952.985 C 872.008 -952.985 876.092 -956.252 877.725 -962.785 C 875.275 -959.518 872.417 -958.293 869.15 -959.11 C 867.286 -959.576 865.954 -960.928 864.48 -962.425 C 862.078 -964.863 859.297 -967.685 853.225 -967.685 Z M 840.975 -952.985 C 834.442 -952.985 830.358 -949.718 828.725 -943.185 C 831.175 -946.452 834.033 -947.677 837.3 -946.86 C 839.164 -946.395 840.496 -945.042 841.97 -943.545 C 844.372 -941.107 847.153 -938.285 853.225 -938.285 C 859.758 -938.285 863.842 -941.552 865.475 -948.085 C 863.025 -944.818 860.167 -943.593 856.9 -944.41 C 855.036 -944.876 853.704 -946.228 852.23 -947.725 C 849.828 -950.163 847.047 -952.985 840.975 -952.985 Z" fill="url(#gradient-1)"/>
</svg>