<?xml version="1.0" encoding="utf-8"?>
<svg viewBox="623.096 49.7105 85.907 96" xmlns="http://www.w3.org/2000/svg">
  <path d="M 662.096 52.02 C 664.571 50.591 667.621 50.591 670.096 52.02 L 703.665 71.401 C 706.14 72.83 707.665 75.471 707.665 78.329 L 707.665 117.092 C 707.665 119.95 706.14 122.591 703.665 124.02 L 670.096 143.401 C 667.621 144.83 664.571 144.83 662.096 143.401 L 628.527 124.02 C 626.052 122.591 624.527 119.95 624.527 117.092 L 624.527 78.329 C 624.527 75.471 626.052 72.83 628.527 71.401 L 662.096 52.02 Z" fill="white" transform="matrix(1, 0, 0, 1, -5.684341886080802e-14, -5.551115123125783e-17)"/>
  <path fill-rule="evenodd" clip-rule="evenodd" d="M 702.287 72.613 L 669.666 53.78 C 667.428 52.487 664.671 52.487 662.433 53.78 L 629.813 72.613 C 627.575 73.905 626.196 76.293 626.196 78.877 L 626.196 116.544 C 626.196 119.128 627.575 121.516 629.813 122.808 L 662.433 141.642 C 664.671 142.934 667.428 142.934 669.666 141.642 L 702.287 122.808 C 704.525 121.516 705.903 119.128 705.903 116.544 L 705.903 78.877 C 705.903 76.293 704.525 73.905 702.287 72.613 Z M 671.216 51.095 C 668.019 49.249 664.08 49.249 660.883 51.095 L 628.263 69.928 C 625.065 71.774 623.096 75.185 623.096 78.877 L 623.096 116.544 C 623.096 120.236 625.065 123.647 628.263 125.493 L 660.883 144.326 C 664.08 146.172 668.019 146.172 671.216 144.326 L 703.837 125.493 C 707.034 123.647 709.003 120.236 709.003 116.544 L 709.003 78.877 C 709.003 75.185 707.034 71.774 703.837 69.928 L 671.216 51.095 Z" fill="#3178C6" transform="matrix(1, 0, 0, 1, -5.684341886080802e-14, -5.551115123125783e-17)"/>
  <path d="M 685.409 73.711 L 646.784 73.711 C 644.195 73.711 642.096 75.809 642.096 78.398 L 642.096 117.023 C 642.096 119.612 644.195 121.711 646.784 121.711 L 685.409 121.711 C 687.997 121.711 690.096 119.612 690.096 117.023 L 690.096 78.398 C 690.096 75.809 687.997 73.711 685.409 73.711 Z" fill="#3178C6" transform="matrix(1, 0, 0, 1, -5.684341886080802e-14, -5.551115123125783e-17)"/>
  <path d="M 685.409 73.711 L 646.784 73.711 C 644.195 73.711 642.096 75.809 642.096 78.398 L 642.096 117.023 C 642.096 119.612 644.195 121.711 646.784 121.711 L 685.409 121.711 C 687.997 121.711 690.096 119.612 690.096 117.023 L 690.096 78.398 C 690.096 75.809 687.997 73.711 685.409 73.711 Z" fill="#3178C6" transform="matrix(1, 0, 0, 1, -5.684341886080802e-14, -5.551115123125783e-17)"/>
  <path fill-rule="evenodd" clip-rule="evenodd" d="M 671.809 111.907 L 671.809 116.6 C 672.572 116.991 673.474 117.284 674.516 117.48 C 675.558 117.675 676.656 117.773 677.81 117.773 C 678.935 117.773 680.003 117.666 681.016 117.45 C 682.028 117.235 682.916 116.881 683.679 116.387 C 684.442 115.893 685.046 115.248 685.491 114.451 C 685.936 113.654 686.159 112.669 686.159 111.496 C 686.159 110.645 686.031 109.9 685.777 109.259 C 685.523 108.619 685.156 108.049 684.677 107.551 C 684.197 107.052 683.623 106.605 682.953 106.209 C 682.283 105.813 681.527 105.439 680.686 105.087 C 680.07 104.833 679.517 104.586 679.028 104.346 C 678.539 104.107 678.123 103.862 677.781 103.613 C 677.438 103.363 677.174 103.099 676.988 102.821 C 676.803 102.542 676.71 102.227 676.71 101.875 C 676.71 101.552 676.793 101.261 676.959 101.002 C 677.125 100.743 677.36 100.521 677.663 100.335 C 677.967 100.149 678.338 100.005 678.778 99.902 C 679.219 99.8 679.708 99.748 680.246 99.748 C 680.637 99.748 681.05 99.778 681.485 99.836 C 681.921 99.895 682.358 99.985 682.799 100.108 C 683.239 100.23 683.667 100.384 684.082 100.57 C 684.498 100.755 684.882 100.97 685.234 101.215 L 685.234 96.83 C 684.52 96.556 683.74 96.353 682.894 96.221 C 682.048 96.089 681.077 96.023 679.982 96.023 C 678.866 96.023 677.81 96.143 676.812 96.382 C 675.815 96.622 674.937 96.996 674.179 97.504 C 673.421 98.013 672.821 98.661 672.381 99.448 C 671.941 100.235 671.721 101.176 671.721 102.271 C 671.721 103.669 672.125 104.862 672.932 105.849 C 673.738 106.837 674.964 107.673 676.607 108.357 C 677.252 108.621 677.854 108.88 678.412 109.135 C 678.969 109.389 679.451 109.653 679.857 109.927 C 680.263 110.2 680.583 110.499 680.818 110.821 C 681.053 111.144 681.17 111.511 681.17 111.921 C 681.17 112.224 681.097 112.505 680.95 112.765 C 680.803 113.024 680.581 113.248 680.282 113.439 C 679.984 113.63 679.612 113.779 679.167 113.886 C 678.722 113.994 678.201 114.048 677.605 114.048 C 676.587 114.048 675.58 113.869 674.582 113.512 C 673.584 113.156 672.66 112.62 671.809 111.907 Z M 663.919 100.343 L 669.94 100.343 L 669.94 96.492 L 653.159 96.492 L 653.159 100.343 L 659.15 100.343 L 659.15 117.492 L 663.919 117.492 L 663.919 100.343 Z" fill="white" transform="matrix(1, 0, 0, 1, -5.684341886080802e-14, -5.551115123125783e-17)"/>
</svg>