<?xml version="1.0" encoding="utf-8"?>
<svg viewBox="843.933 262.8813 85.907 95.9995" xmlns="http://www.w3.org/2000/svg">
  <path d="M 883.777 266.105 C 886.252 264.676 889.302 264.676 891.777 266.105 L 925.346 285.487 C 927.821 286.916 929.346 289.557 929.346 292.415 L 929.346 331.177 C 929.346 334.035 927.821 336.676 925.346 338.105 L 891.777 357.487 C 889.302 358.916 886.252 358.916 883.777 357.487 L 850.208 338.105 C 847.733 336.676 846.208 334.035 846.208 331.177 L 846.208 292.415 C 846.208 289.557 847.733 286.916 850.208 285.487 L 883.777 266.105 Z" fill="white" style=""/>
  <path fill-rule="evenodd" clip-rule="evenodd" d="M 923.124 285.783 L 890.503 266.95 C 888.265 265.658 885.508 265.658 883.27 266.95 L 850.65 285.783 C 848.412 287.076 847.033 289.463 847.033 292.048 L 847.033 329.715 C 847.033 332.299 848.412 334.687 850.65 335.979 L 883.27 354.812 C 885.508 356.104 888.265 356.104 890.503 354.812 L 923.124 335.979 C 925.362 334.687 926.74 332.299 926.74 329.715 L 926.74 292.048 C 926.74 289.463 925.362 287.076 923.124 285.783 Z M 892.053 264.265 C 888.856 262.42 884.917 262.42 881.72 264.265 L 849.1 283.099 C 845.903 284.945 843.933 288.356 843.933 292.048 L 843.933 329.715 C 843.933 333.406 845.903 336.817 849.1 338.663 L 881.72 357.497 C 884.917 359.342 888.856 359.342 892.053 357.497 L 924.674 338.663 C 927.871 336.817 929.84 333.406 929.84 329.715 L 929.84 292.048 C 929.84 288.356 927.871 284.945 924.674 283.099 L 892.053 264.265 Z" style="fill: rgb(55, 160, 140);"/>
  <g transform="matrix(1, 0, 0, 1, 374.33856201171875, 189.5331268310547)">
    <g style="">
      <g transform="matrix(0.316535, 0, 0, -0.300705, 463.605927, 174.793915)" style="">
        <g transform="translate(178.06 235.01)" style="pointer-events: none;">
          <path d="m0 0-22.669-39.264-22.669 39.264h-75.491l98.16-170.02 98.16 170.02z" fill="#41b883"/>
        </g>
        <g transform="translate(178.06 235.01)">
          <path d="m0 0-22.669-39.264-22.669 39.264h-36.227l58.896-102.01 58.896 102.01z" fill="#34495e"/>
        </g>
      </g>
    </g>
  </g>
</svg>